# xmcd
#
# Track frame offsets: 
#        150
#        3234
#        40434
#        50532
#        64771
#        76463
#        93222
#        109988
#        122965
#        140490
#        150439
#        168763
#        181630
#        209715
#
# Disc length: 2938 seconds
#
# Revision: 11
# Processed by: cddbd v1.5.2PL0 Copyright (c) Steve Scherf et al.
# Submitted via: ExactAudioCopy v1.0b3
#
DISCID=b70b780e
DTITLE=Carpenters - An Old Fashioned Christmas
DYEAR=1984
DGENRE=Pop
TTITLE0=It Came Upon A Midnight Clear
TTITLE1=Overture: Happy Holiday, The First Noel, March Of The Toys, Li
TTITLE1=ttle Jesus, I Saw Mommy Kissing Santa
TTITLE2=An Old-Fashioned Christmas
TTITLE3=O Holy Night
TTITLE4=(There's No Place Like) Home For The Holidays
TTITLE5=Medley: Here Comes Santa Claus, Frosty The Snowman, Rudolph Th
TTITLE5=e Red-Nosed Reindeer, Good King Wence
TTITLE6=Little Altar Boy
TTITLE7=Do You Hear What I Hear?
TTITLE8=My Favorite Things
TTITLE9=He Came Here For Me
TTITLE10=Santa Claus Is Coming To Town
TTITLE11=What Are You Doing New Year's Eve?
TTITLE12=Selections From 'The Nutcracker': Overture Miniature, Dance O
TTITLE12=f The Sugar Plum Fairy, Trepak, Valse 
TTITLE13=I Heard The Bells On Christmas Day
EXTD=2 Disc-Set "Carpenters Christmas" Collection (Christmas Portrait 
EXTD=+ An Old-Fashioned Christmas]\n YEAR: 1984
EXTT0=
EXTT1=
EXTT2=
EXTT3=
EXTT4=
EXTT5=
EXTT6=
EXTT7=
EXTT8=
EXTT9=
EXTT10=
EXTT11=
EXTT12=
EXTT13=
PLAYORDER=
